<?xml version="1.0" encoding="UTF-8" standalone="no"?>
<!DOCTYPE svg PUBLIC "-//W3C//DTD SVG 1.1//EN" "http://www.w3.org/Graphics/SVG/1.1/DTD/svg11.dtd">
<svg width="100%" height="100%" viewBox="0 0 694 220" version="1.1" xmlns="http://www.w3.org/2000/svg" xmlns:xlink="http://www.w3.org/1999/xlink" xml:space="preserve" xmlns:serif="http://www.serif.com/" style="fill-rule:evenodd;clip-rule:evenodd;stroke-linejoin:round;stroke-miterlimit:2;">
    <g transform="matrix(1,0,0,1,-933.105,-635.999)">
        <g transform="matrix(1,0,0,1,90.3475,0)">
            <g transform="matrix(20.5925,0,0,20.5925,-9301.59,-13577)">
                <path d="M506.442,696.896L506.442,699.519L504.502,699.519L504.502,691.515L508.102,691.515C509.038,691.515 509.773,691.727 510.307,692.151C510.842,692.575 511.11,693.232 511.11,694.122C511.11,695.011 510.842,695.696 510.307,696.176C509.773,696.656 509.038,696.896 508.102,696.896L506.442,696.896ZM506.442,695.388L507.86,695.388C508.067,695.388 508.245,695.361 508.392,695.307C508.54,695.253 508.659,695.173 508.75,695.068C508.842,694.963 508.909,694.841 508.953,694.702C508.997,694.563 509.019,694.412 509.019,694.248C509.019,694.061 508.997,693.895 508.953,693.747C508.909,693.6 508.842,693.471 508.75,693.36C508.659,693.25 508.54,693.166 508.392,693.109C508.245,693.052 508.067,693.024 507.86,693.024L506.442,693.024L506.442,695.388Z" style="fill:rgb(83,204,30);"/>
            </g>
            <g transform="matrix(20.5925,0,0,20.5925,-9301.59,-13577)">
                <path d="M512.925,697.788L512.349,699.519L510.514,699.519L513.538,691.515L515.662,691.515L518.498,699.519L516.499,699.519L515.913,697.788L512.925,697.788ZM515.432,696.363L514.407,693.333L513.399,696.363L515.432,696.363Z" style="fill:rgb(83,204,30);"/>
            </g>
            <g transform="matrix(0.907429,0,0,0.907429,-414.484,666.594)">
                <path d="M2042.52,177.752L2042.52,99.187L1973.57,-3.885L2027.77,-3.885L2068.81,65.025L2106.17,-3.885L2150.07,-3.885L2086.53,99.798L2086.53,177.752L2042.52,177.752Z" style="fill:rgb(83,204,30);fill-rule:nonzero;"/>
            </g>
            <g transform="matrix(17.7566,0,0,17.7566,-7873.35,-11583.7)">
                <path d="M493.267,694.26C493.248,694.26 493.229,694.268 493.216,694.282C493.202,694.295 493.194,694.314 493.194,694.333L493.194,694.76C493.194,694.788 493.178,694.814 493.153,694.826C493.127,694.838 493.097,694.834 493.075,694.816L490.891,693.005C490.875,692.991 490.865,692.971 490.865,692.949C490.865,692.928 490.875,692.907 490.891,692.893L493.075,691.083C493.097,691.065 493.127,691.061 493.153,691.073C493.178,691.085 493.194,691.11 493.194,691.139L493.194,691.565C493.194,691.585 493.202,691.603 493.216,691.617C493.229,691.63 493.248,691.638 493.267,691.638L497.953,691.638C500.402,691.638 502.39,693.626 502.39,696.075C502.39,698.524 500.402,700.512 497.953,700.512C495.504,700.512 493.516,698.524 493.516,696.075C493.516,695.651 493.576,695.24 493.687,694.851C493.696,694.82 493.725,694.799 493.757,694.799L496.5,694.799C496.529,694.799 496.555,694.815 496.567,694.841C496.578,694.867 496.574,694.897 496.556,694.919C496.295,695.233 496.139,695.636 496.139,696.075C496.139,697.077 496.952,697.89 497.953,697.89C498.955,697.89 499.768,697.077 499.768,696.075C499.768,695.074 498.955,694.26 497.953,694.26L493.267,694.26ZM499.804,688.177C499.829,688.177 499.852,688.19 499.865,688.211C499.879,688.233 499.88,688.259 499.869,688.282L498.483,691.059C498.47,691.084 498.445,691.1 498.418,691.1L495.65,691.1C495.624,691.1 495.601,691.087 495.588,691.065C495.574,691.044 495.573,691.017 495.585,690.994L496.97,688.217C496.983,688.192 497.008,688.177 497.036,688.177L499.804,688.177Z" style="fill:rgb(84,201,33);"/>
            </g>
        </g>
    </g>
</svg>